<?xml version="1.0" encoding="utf-8"?>
<!-- Generator: Adobe Illustrator 24.2.1, SVG Export Plug-In . SVG Version: 6.00 Build 0)  -->
<svg version="1.1" id="Layer_1" xmlns="http://www.w3.org/2000/svg" xmlns:xlink="http://www.w3.org/1999/xlink" x="0px" y="0px"
	 viewBox="0 0 59.2 62" style="enable-background:new 0 0 59.2 62;" xml:space="preserve">
<style type="text/css">
	.st0{opacity:0.85;}
	.st1{fill:#FFFFFF;}
</style>
<g class="st0">
	<g transform="translate(0 0)">
		<path class="st1" d="M51.9,18.4c1.6-8.5-4-16.6-12.5-18.2C32.9-0.9,26.5,2,23.1,7.6c-3.6-1.2-7.7-0.7-10.8,1.5
			c-3.2,2.1-5.1,5.7-5.3,9.5c-6.1,2.8-8.7,10-5.9,16c2,4.3,6.3,7.1,11,7h34.8c6.7,0.1,12.2-5.2,12.3-11.9
			C59.2,24.8,56.4,20.4,51.9,18.4L51.9,18.4z M46.9,38.1H12.1c-4.8,0-8.6-3.8-8.7-8.6c0-3.7,2.4-7.1,5.9-8.2l1.2-0.4l-0.1-1.3
			c-0.2-3,1.2-6,3.7-7.7c2.7-1.8,6.1-2,9-0.6l1.6,0.7l0.7-1.6c2.8-6.1,10.1-8.7,16.1-5.9c4.3,2,7,6.3,7,11c0,1.6-0.3,3.2-0.9,4.8
			c0.6,0.4,1.3,0.7,1.9,0.9c4.5,1.5,7,6.3,5.6,10.8C54.1,35.8,50.7,38.2,46.9,38.1L46.9,38.1z"/>
	</g>
</g>
<g>
	<line class="st1" x1="16.9" y1="44.9" x2="9.9" y2="51.8"/>
	<path class="st1" d="M9.9,53c-0.3,0-0.6-0.1-0.8-0.3c-0.4-0.5-0.4-1.2,0-1.6l7-6.9c0.5-0.4,1.2-0.4,1.6,0c0.4,0.5,0.4,1.2,0,1.6
		l-7,6.9C10.4,52.9,10.1,53,9.9,53z"/>
</g>
<g>
	<line class="st1" x1="26" y1="43.6" x2="19.1" y2="50.4"/>
	<path class="st1" d="M19.1,51.6c-0.3,0-0.6-0.1-0.8-0.3c-0.4-0.4-0.4-1.2,0-1.6l6.9-6.8c0.4-0.4,1.2-0.4,1.6,0
		c0.4,0.4,0.4,1.2,0,1.6l-6.9,6.8C19.6,51.5,19.4,51.6,19.1,51.6z"/>
</g>
<g>
	<line class="st1" x1="25.7" y1="50.9" x2="18.8" y2="57.7"/>
	<path class="st1" d="M18.8,58.8c-0.3,0-0.6-0.1-0.8-0.3c-0.4-0.4-0.4-1.2,0-1.6l6.9-6.8c0.4-0.4,1.2-0.4,1.6,0
		c0.4,0.4,0.4,1.2,0,1.6l-6.9,6.8C19.3,58.7,19,58.8,18.8,58.8z"/>
</g>
<g>
	<line class="st1" x1="37.2" y1="44.7" x2="30.2" y2="51.5"/>
	<path class="st1" d="M30.2,52.6c-0.3,0-0.6-0.1-0.8-0.3c-0.4-0.4-0.4-1.2,0-1.6l6.9-6.8c0.4-0.4,1.2-0.4,1.6,0
		c0.4,0.4,0.4,1.2,0,1.6L31,52.3C30.8,52.5,30.5,52.6,30.2,52.6z"/>
</g>
</svg>
